<svg xmlns="http://www.w3.org/2000/svg" viewBox="0 0 120 120" fill="none">
  <defs>
    <linearGradient id="g1" x1="60" y1="10" x2="60" y2="110" gradientUnits="userSpaceOnUse">
      <stop offset="0%" stop-color="#2E4BB0"/>
      <stop offset="100%" stop-color="#1E3066"/>
    </linearGradient>
    <linearGradient id="g2" x1="0" y1="0" x2="1" y2="1">
      <stop offset="0%" stop-color="#00AEEF"/>
      <stop offset="100%" stop-color="#1E3066"/>
    </linearGradient>
  </defs>
  <path d="M60 12 L98 30 V58 C98 78 60 98 60 98 C60 98 22 78 22 58 V30 Z" fill="none" stroke="url(#g1)" stroke-width="3.5" stroke-linejoin="round"/>
  <path d="M38 48 L48 42 L48 68 L38 72 Z" fill="#2E4BB0"/>
  <path d="M52 36 H68 V72 H52 Z" fill="url(#g2)"/>
  <g fill="#fff" opacity="0.9">
    <rect x="54" y="42" width="4" height="4"/><rect x="60" y="42" width="4" height="4"/><rect x="66" y="42" width="4" height="4"/>
    <rect x="54" y="50" width="4" height="4"/><rect x="60" y="50" width="4" height="4"/><rect x="66" y="50" width="4" height="4"/>
  </g>
  <path d="M72 50 L82 54 L82 70 L72 66 Z" fill="#2E4BB0"/>
  <path d="M28 68 H92" stroke="#00AEEF" stroke-width="2" stroke-linecap="round"/>
  <circle cx="28" cy="68" r="2.5" fill="#00AEEF"/>
  <circle cx="92" cy="68" r="2.5" fill="#00AEEF"/>
</svg>
